<svg xmlns="http://www.w3.org/2000/svg" viewBox="0 0 1200 800" preserveAspectRatio="xMidYMid slice">
  <defs>
    <linearGradient id="bg" x1="0" y1="0" x2="1" y2="1">
      <stop offset="0%" stop-color="#ffd08b"/>
      <stop offset="100%" stop-color="#ff9f5e"/>
    </linearGradient>
  </defs>
  <rect width="1200" height="800" fill="url(#bg)"/>
  <rect y="330" width="1200" height="470" fill="#b97c3b"/>

  <g fill="#6b4f2a" opacity="0.55">
    <path d="M0 500L1200 360v48L0 548z"/>
    <path d="M0 615L1200 475v46L0 661z"/>
    <path d="M0 730L1200 590v46L0 776z"/>
  </g>

  <g fill="#2f2f2f" opacity="0.9">
    <circle cx="350" cy="300" r="42"/>
    <rect x="330" y="340" width="40" height="135" rx="16"/>
    <rect x="300" y="470" width="28" height="135" rx="12" transform="rotate(8 300 470)"/>
    <rect x="372" y="470" width="28" height="135" rx="12" transform="rotate(-8 372 470)"/>

    <circle cx="690" cy="320" r="42"/>
    <rect x="670" y="360" width="40" height="120" rx="16"/>
    <rect x="642" y="472" width="26" height="120" rx="12" transform="rotate(8 642 472)"/>
    <rect x="712" y="472" width="26" height="120" rx="12" transform="rotate(-8 712 472)"/>
  </g>

  <g stroke="#f4e1bf" stroke-width="8" stroke-linecap="round">
    <path d="M470 330l85-40"/>
    <path d="M810 350l95-35"/>
  </g>
</svg>
